<?xml version="1.0" encoding="utf-8"?>
<!-- Generator: Adobe Illustrator 26.2.1, SVG Export Plug-In . SVG Version: 6.00 Build 0)  -->
<svg version="1.1" id="a" xmlns="http://www.w3.org/2000/svg" xmlns:xlink="http://www.w3.org/1999/xlink" x="0px" y="0px"
	 viewBox="0 0 1366 768" style="enable-background:new 0 0 1366 768;" xml:space="preserve">
<style type="text/css">
	.st0{opacity:1.000000e-02;fill:#FFFFFF;}
	.st1{fill:url(#SVGID_1_);}
	.st2{fill:url(#SVGID_00000174585652480510720480000005327241467858169248_);}
	.st3{fill:url(#SVGID_00000000212670877897859030000000616984209292237981_);}
	.st4{fill:url(#SVGID_00000117658926512448316060000003842994656105057183_);}
	.st5{fill:url(#SVGID_00000053511526152839920710000011577240419814378130_);}
	.st6{fill:url(#SVGID_00000176742795254148707360000000660486344427722134_);}
	.st7{fill:url(#SVGID_00000132787898807303879620000010586409081540678586_);}
	.st8{fill:url(#SVGID_00000151513477492425131080000011596935764993099702_);}
	.st9{fill:url(#SVGID_00000171700653674413125060000010284081751992358280_);}
	.st10{fill:url(#SVGID_00000055702984334763567770000015295529617802629020_);}
	.st11{fill:url(#SVGID_00000004538178348931482070000008683308514365479311_);}
	.st12{fill:url(#SVGID_00000170280146758597983140000008696257584044247445_);}
	.st13{fill:url(#SVGID_00000119114590100753074270000000301505598786992259_);}
	.st14{fill:url(#SVGID_00000046332644101624072910000009985837597045808575_);}
	.st15{fill:url(#SVGID_00000070817784991045620850000010645160576715219638_);}
	.st16{fill:url(#SVGID_00000165209449783016580360000004101786275408204680_);}
	.st17{fill:url(#SVGID_00000070840364876228181220000000125416598904218024_);}
	.st18{fill:url(#SVGID_00000087372035445934870470000010878560496298508991_);}
	.st19{fill:url(#SVGID_00000170250748184471603110000014736930878629480612_);}
	.st20{fill:url(#SVGID_00000052066999335703534740000000721887830572564129_);}
</style>
<rect x="-0.5" class="st0" width="1368.5" height="767"/>
<g id="cd">
	
		<linearGradient id="SVGID_1_" gradientUnits="userSpaceOnUse" x1="1172.6" y1="-699.8" x2="1172.6" y2="-570.1459" gradientTransform="matrix(1 0 0 -1 0 -160)">
		<stop  offset="0" style="stop-color:#FBFAE4"/>
		<stop  offset="0.53" style="stop-color:#FDD6B5"/>
		<stop  offset="0.92" style="stop-color:#F09CAE"/>
	</linearGradient>
	<path class="st1" d="M979.2,539.8H1366V413c-60.7-8.3-112,3.3-159.7,11.9C1094.9,444.9,979.2,539.8,979.2,539.8L979.2,539.8
		L979.2,539.8z"/>
	
		<linearGradient id="SVGID_00000116207001541697347160000001791088368701653670_" gradientUnits="userSpaceOnUse" x1="804.05" y1="-879.3" x2="804.05" y2="-689.3553" gradientTransform="matrix(1 0 0 -1 0 -160)">
		<stop  offset="0" style="stop-color:#CD8CB6"/>
		<stop  offset="0.32" style="stop-color:#AF78A1"/>
		<stop  offset="0.97" style="stop-color:#654778"/>
	</linearGradient>
	<path style="fill:url(#SVGID_00000116207001541697347160000001791088368701653670_);" d="M241.9,719.2c0,0,193.4-165.4,322.4-165.4
		s68.7,54.7,346.2-21c0,0,86.9-21,200.4,40.7l255.3,125.1l-0.3,20.7L241.9,719.2L241.9,719.2L241.9,719.2z"/>
	
		<linearGradient id="SVGID_00000123417286504010752080000015539466523525933441_" gradientUnits="userSpaceOnUse" x1="1189.5" y1="-685.2" x2="1189.5" y2="-574.6" gradientTransform="matrix(1 0 0 -1 0 -160)">
		<stop  offset="0" style="stop-color:#7B5584"/>
		<stop  offset="0.97" style="stop-color:#452D54"/>
	</linearGradient>
	<polygon style="fill:url(#SVGID_00000123417286504010752080000015539466523525933441_);" points="1160.3,525.2 1191.5,414.6 
		1218.7,525.2 	"/>
	
		<linearGradient id="SVGID_00000161593677864467192000000006506192595245468840_" gradientUnits="userSpaceOnUse" x1="1165.95" y1="-678.5" x2="1165.95" y2="-570.7" gradientTransform="matrix(1 0 0 -1 0 -160)">
		<stop  offset="0" style="stop-color:#7B5584"/>
		<stop  offset="0.97" style="stop-color:#452D54"/>
	</linearGradient>
	<polygon style="fill:url(#SVGID_00000161593677864467192000000006506192595245468840_);" points="1137.5,518.5 1167.9,410.7 
		1194.4,518.5 	"/>
	
		<linearGradient id="SVGID_00000007409206012441939560000017451605958400195720_" gradientUnits="userSpaceOnUse" x1="1037.75" y1="-860.9" x2="1037.75" y2="-611.2" gradientTransform="matrix(1 0 0 -1 0 -160)">
		<stop  offset="0" style="stop-color:#CD8CB6"/>
		<stop  offset="0.55" style="stop-color:#AF78A1"/>
		<stop  offset="0.97" style="stop-color:#654778"/>
	</linearGradient>
	<path style="fill:url(#SVGID_00000007409206012441939560000017451605958400195720_);" d="M709.5,700.9
		c221.5-46.3,468.2-206,522.8-234.1c22.5-11.5,77.1-15.2,133.7-15.6v244L709.5,700.9L709.5,700.9z"/>
	
		<linearGradient id="SVGID_00000144306372716679723040000013743413620920800431_" gradientUnits="userSpaceOnUse" x1="1210.7999" y1="-696.5" x2="1210.7999" y2="-585.4" gradientTransform="matrix(1 0 0 -1 0 -160)">
		<stop  offset="0" style="stop-color:#7B5584"/>
		<stop  offset="0.97" style="stop-color:#452D54"/>
	</linearGradient>
	<polygon style="fill:url(#SVGID_00000144306372716679723040000013743413620920800431_);" points="1181.5,536.5 1212.8,425.4 
		1240.1,536.5 	"/>
	
		<linearGradient id="SVGID_00000094576422776556901910000001135225815015096204_" gradientUnits="userSpaceOnUse" x1="1245.15" y1="-665.5" x2="1245.15" y2="-578.9" gradientTransform="matrix(1 0 0 -1 0 -160)">
		<stop  offset="0" style="stop-color:#7B5584"/>
		<stop  offset="0.97" style="stop-color:#452D54"/>
	</linearGradient>
	<polygon style="fill:url(#SVGID_00000094576422776556901910000001135225815015096204_);" points="1222.3,505.5 1246.7,418.9 
		1268,505.5 	"/>
	
		<linearGradient id="SVGID_00000025432577271223072250000012575797154784865434_" gradientUnits="userSpaceOnUse" x1="1277.95" y1="-662.5" x2="1277.95" y2="-576" gradientTransform="matrix(1 0 0 -1 0 -160)">
		<stop  offset="0" style="stop-color:#7B5584"/>
		<stop  offset="0.97" style="stop-color:#452D54"/>
	</linearGradient>
	<polygon style="fill:url(#SVGID_00000025432577271223072250000012575797154784865434_);" points="1255.1,502.5 1279.5,416 
		1300.8,502.5 	"/>
	
		<linearGradient id="SVGID_00000121970824457464401450000014064549018695227525_" gradientUnits="userSpaceOnUse" x1="1137.5499" y1="-678.5" x2="1137.5499" y2="-591.9" gradientTransform="matrix(1 0 0 -1 0 -160)">
		<stop  offset="0" style="stop-color:#7B5584"/>
		<stop  offset="0.97" style="stop-color:#452D54"/>
	</linearGradient>
	<polygon style="fill:url(#SVGID_00000121970824457464401450000014064549018695227525_);" points="1114.7,518.5 1139.1,431.9 
		1160.4,518.5 	"/>
	
		<linearGradient id="SVGID_00000132051340585830488390000012001341038638334860_" gradientUnits="userSpaceOnUse" x1="1108" y1="-676.6" x2="1108" y2="-607.8" gradientTransform="matrix(1 0 0 -1 0 -160)">
		<stop  offset="0" style="stop-color:#7B5584"/>
		<stop  offset="0.97" style="stop-color:#452D54"/>
	</linearGradient>
	<polygon style="fill:url(#SVGID_00000132051340585830488390000012001341038638334860_);" points="1089.8,516.6 1109.2,447.8 
		1126.2,516.6 	"/>
	
		<linearGradient id="SVGID_00000119099563219520690060000009584427846584081042_" gradientUnits="userSpaceOnUse" x1="1076.95" y1="-676.6" x2="1076.95" y2="-607.8" gradientTransform="matrix(1 0 0 -1 0 -160)">
		<stop  offset="0" style="stop-color:#7B5584"/>
		<stop  offset="0.97" style="stop-color:#452D54"/>
	</linearGradient>
	<polygon style="fill:url(#SVGID_00000119099563219520690060000009584427846584081042_);" points="1058.8,516.6 1078.2,447.8 
		1095.1,516.6 	"/>
	
		<linearGradient id="SVGID_00000005256903208907611570000007132157073588145300_" gradientUnits="userSpaceOnUse" x1="771.35" y1="-928.7" x2="771.35" y2="-629.2735" gradientTransform="matrix(1 0 0 -1 0 -160)">
		<stop  offset="0" style="stop-color:#CD8CB6"/>
		<stop  offset="0.39" style="stop-color:#AF78A1"/>
		<stop  offset="0.97" style="stop-color:#654778"/>
	</linearGradient>
	<path style="fill:url(#SVGID_00000005256903208907611570000007132157073588145300_);" d="M175.5,762.1c0,0,312.5-142.5,578.4-229.4
		s215.4-71.5,472-30.8c50.1,8,96.3,18.4,141.3,28.5l-1.2,238.3L175.5,762.1L175.5,762.1z"/>
	
		<linearGradient id="SVGID_00000084493844310885383370000002378685855014228143_" gradientUnits="userSpaceOnUse" x1="312.45" y1="-928" x2="312.45" y2="-596.3" gradientTransform="matrix(1 0 0 -1 0 -160)">
		<stop  offset="0" style="stop-color:#CD8CB6"/>
		<stop  offset="0.55" style="stop-color:#AF78A1"/>
		<stop  offset="0.97" style="stop-color:#654778"/>
	</linearGradient>
	<path style="fill:url(#SVGID_00000084493844310885383370000002378685855014228143_);" d="M-0.3,471.8
		c30.8-19.4,70.6-35.5,124.5-35.5c143,0,114.8,331.7,501,331.7H2L-0.3,471.8z"/>
	
		<linearGradient id="SVGID_00000012442094166207184060000018153915002289829005_" gradientUnits="userSpaceOnUse" x1="1037.75" y1="-903" x2="1037.75" y2="-653.2995" gradientTransform="matrix(1 0 0 -1 0 -160)">
		<stop  offset="0" style="stop-color:#CD8CB6"/>
		<stop  offset="0.55" style="stop-color:#AF78A1"/>
		<stop  offset="0.97" style="stop-color:#654778"/>
	</linearGradient>
	<path style="fill:url(#SVGID_00000012442094166207184060000018153915002289829005_);" d="M709.5,743
		c221.5-46.3,468.2-206,522.8-234.1c30-15.3,87.7-16.8,133.7-15v242.8L709.5,743L709.5,743z"/>
	
		<linearGradient id="SVGID_00000136407363908052754450000000789797660435523757_" gradientUnits="userSpaceOnUse" x1="190.8941" y1="-882.9" x2="190.8941" y2="-702.5709" gradientTransform="matrix(1 0 0 -1 0 -160)">
		<stop  offset="0" style="stop-color:#CD8CB6"/>
		<stop  offset="0.55" style="stop-color:#AF78A1"/>
		<stop  offset="0.97" style="stop-color:#654778"/>
	</linearGradient>
	<path style="fill:url(#SVGID_00000136407363908052754450000000789797660435523757_);" d="M0.9,631.4
		c67-57.8,161.3-110.6,277.6-79.7c124.7,33.2,101.6,171.2,101.6,171.2H0L0.9,631.4z"/>
	
		<linearGradient id="SVGID_00000125569977531803121800000009497185341768929686_" gradientUnits="userSpaceOnUse" x1="509.5952" y1="-896.5" x2="509.5952" y2="-749.8562" gradientTransform="matrix(1 0 0 -1 0 -160)">
		<stop  offset="0" style="stop-color:#CD8CB6"/>
		<stop  offset="0.4" style="stop-color:#AF78A1"/>
		<stop  offset="0.97" style="stop-color:#654778"/>
	</linearGradient>
	<path style="fill:url(#SVGID_00000125569977531803121800000009497185341768929686_);" d="M0.2,700.7
		c106.6-47.3,275.6-99.4,386-109.5c193.2-17.7,168.3,145.3,605,145.3c201.6,0-743.5,0-991.2,0L0.2,700.7z"/>
	
		<linearGradient id="SVGID_00000017475346837280212750000003494511502555485825_" gradientUnits="userSpaceOnUse" x1="898.6976" y1="-827.8" x2="898.6976" y2="-734.1572" gradientTransform="matrix(1 0 0 -1 0 -160)">
		<stop  offset="1.000000e-02" style="stop-color:#CD8CB6;stop-opacity:0"/>
		<stop  offset="0.4" style="stop-color:#AF78A1"/>
		<stop  offset="0.97" style="stop-color:#654778"/>
	</linearGradient>
	<path style="fill:url(#SVGID_00000017475346837280212750000003494511502555485825_);" d="M615.3,667.8
		c52.9-33.7,108.3-95.5,155.9-93.6c47.5,1.8,108.4,93.6,390,93.6C1310,667.8,615.3,667.8,615.3,667.8L615.3,667.8z"/>
	
		<linearGradient id="SVGID_00000113315307429760032510000000267953165346561189_" gradientUnits="userSpaceOnUse" x1="1071.8859" y1="-875.6" x2="1071.8859" y2="-781.8917" gradientTransform="matrix(1 0 0 -1 0 -160)">
		<stop  offset="1.000000e-02" style="stop-color:#CD8CB6;stop-opacity:0"/>
		<stop  offset="0.4" style="stop-color:#AF78A1"/>
		<stop  offset="0.97" style="stop-color:#654778"/>
	</linearGradient>
	<path style="fill:url(#SVGID_00000113315307429760032510000000267953165346561189_);" d="M788.5,715.6
		c52.9-33.7,65.6-88.8,155.9-93.6c71.2-3.8,108.5,93.6,390,93.6C1483.1,715.6,788.5,715.6,788.5,715.6L788.5,715.6z"/>
	
		<linearGradient id="SVGID_00000118381786160968288450000004047387940683362439_" gradientUnits="userSpaceOnUse" x1="683" y1="-928.7" x2="683" y2="-817.4" gradientTransform="matrix(1 0 0 -1 0 -160)">
		<stop  offset="0.62" style="stop-color:#CD8CB6"/>
		<stop  offset="1" style="stop-color:#CD8CB6;stop-opacity:0"/>
	</linearGradient>
	<polygon style="fill:url(#SVGID_00000118381786160968288450000004047387940683362439_);" points="1366,657.4 0,657.4 0,768 
		1366,768.7 	"/>
	
		<linearGradient id="SVGID_00000142135673888347838280000011823398921028841133_" gradientUnits="userSpaceOnUse" x1="825.6993" y1="-921.8" x2="825.6993" y2="-817.4431" gradientTransform="matrix(1 0 0 -1 0 -160)">
		<stop  offset="1.000000e-02" style="stop-color:#CD8CB6;stop-opacity:0"/>
		<stop  offset="0.4" style="stop-color:#AF78A1"/>
		<stop  offset="1" style="stop-color:#7A5483"/>
	</linearGradient>
	<path style="fill:url(#SVGID_00000142135673888347838280000011823398921028841133_);" d="M413.3,761.8
		c77-37.2,95.8-94.3,226.9-103.4c181.2-12.6,157.8,103.4,567.5,103.4C1424.2,761.8,413.3,761.8,413.3,761.8L413.3,761.8L413.3,761.8
		z"/>
</g>
</svg>
