<?xml version="1.0" encoding="utf-8"?>
<!-- Generator: Adobe Illustrator 26.2.1, SVG Export Plug-In . SVG Version: 6.00 Build 0)  -->
<svg version="1.1" id="a" xmlns="http://www.w3.org/2000/svg" xmlns:xlink="http://www.w3.org/1999/xlink" x="0px" y="0px"
	 viewBox="0 0 1366 768" style="enable-background:new 0 0 1366 768;" xml:space="preserve">
<style type="text/css">
	.st0{fill:url(#SVGID_1_);}
	.st1{fill:url(#SVGID_00000065764051377163201420000008043796286011646091_);}
	.st2{fill:url(#SVGID_00000070836038502100925390000004340882825875550636_);}
	.st3{fill:url(#SVGID_00000134245598307361983940000017394172027314078625_);}
	.st4{fill:url(#SVGID_00000002345114644783599810000005580420030298720129_);}
	.st5{fill:url(#SVGID_00000050654488741812974410000005040297389734736303_);}
</style>
<!-- <linearGradient id="SVGID_1_" gradientUnits="userSpaceOnUse" x1="684" y1="1698.7" x2="684" y2="930" gradientTransform="matrix(1 0 0 1 0 -930)">
	<stop  offset="3.120000e-02" style="stop-color:#FFCAAC"/>
	<stop  offset="0.5737" style="stop-color:#FFCAAC"/>
	<stop  offset="0.7323" style="stop-color:#B77798"/>
	<stop  offset="0.9069" style="stop-color:#6B4574"/>
	<stop  offset="1" style="stop-color:#362A58"/>
</linearGradient> -->
<polygon class="st0" points="0,0 1368,0 1366,768.7 0,768.7 "/>
<linearGradient id="SVGID_00000165937292590305960010000000272311784713160099_" gradientUnits="userSpaceOnUse" x1="511.25" y1="1979.2" x2="511.25" y2="1489" gradientTransform="matrix(1 0 0 1 0 -1240)">
	<stop  offset="0" style="stop-color:#D6B696"/>
	<stop  offset="1" style="stop-color:#A66977"/>
</linearGradient>
<path style="fill:url(#SVGID_00000165937292590305960010000000272311784713160099_);" d="M0,249c68.3,4.9,130.5,26.4,194.1,59.2
	C349,387.8,471,444,560.4,503c89.5,59,346.6,227.4,462.1,236.2H0V249z"/>
<linearGradient id="SVGID_00000047765920638084577970000014120225841117492143_" gradientUnits="userSpaceOnUse" x1="684.2999" y1="2010.6" x2="684.2999" y2="1574.5366" gradientTransform="matrix(1 0 0 1 0 -1240)">
	<stop  offset="0.15" style="stop-color:#D6B696"/>
	<stop  offset="0.31" style="stop-color:#D3B194"/>
	<stop  offset="0.49" style="stop-color:#CAA48F"/>
	<stop  offset="0.69" style="stop-color:#BE9087"/>
	<stop  offset="0.89" style="stop-color:#AF777D"/>
	<stop  offset="1" style="stop-color:#A66977"/>
</linearGradient>
<path style="fill:url(#SVGID_00000047765920638084577970000014120225841117492143_);" d="M0,639.3
	c134.5-52.5,358.3-143.2,501.8-218.9c216.5-114.2,343.9-103,478.9-33.3c134.8,69.4,241.3,118.5,319.2,170c16.7,11,40.2,26.5,67.7,44
	l1,169.5L0.7,763.1L0,639.3z"/>
<linearGradient id="SVGID_00000087409574160507164540000005072269788366736828_" gradientUnits="userSpaceOnUse" x1="1062.35" y1="2007" x2="1062.35" y2="1594.3" gradientTransform="matrix(1 0 0 1 0 -1240)">
	<stop  offset="0.2" style="stop-color:#D6B696"/>
	<stop  offset="0.34" style="stop-color:#D2B093"/>
	<stop  offset="0.52" style="stop-color:#C8A08D"/>
	<stop  offset="0.74" style="stop-color:#B98984"/>
	<stop  offset="0.98" style="stop-color:#A86C78"/>
	<stop  offset="0.99" style="stop-color:#A66977"/>
</linearGradient>
<path style="fill:url(#SVGID_00000087409574160507164540000005072269788366736828_);" d="M844.2,688.6c0,0,287.6-169.1,443.8-288
	c27.5-21,50.7-36,78.9-46.3l1.2,412.7H756.6C756.6,766.8,779.9,739.7,844.2,688.6L844.2,688.6L844.2,688.6z"/>
<linearGradient id="SVGID_00000050637509582150859330000003270572077662383014_" gradientUnits="userSpaceOnUse" x1="925.2" y1="2007" x2="925.2" y2="1565.2748" gradientTransform="matrix(1 0 0 1 0 -1240)">
	<stop  offset="0" style="stop-color:#D6B696"/>
	<stop  offset="1" style="stop-color:#A66977"/>
</linearGradient>
<path style="fill:url(#SVGID_00000050637509582150859330000003270572077662383014_);" d="M572.2,688.6c0,0,287.6-154.8,443.8-273.7
	c156.1-119.2,248-107.5,345.1-34.8c3.4,2.6,0.9,5.1,4.2,7.6L1366,767H484.4C484.6,766.8,507.9,739.7,572.2,688.6z"/>
<linearGradient id="SVGID_00000120524224599402928330000016389790800569394334_" gradientUnits="userSpaceOnUse" x1="683" y1="2006.7" x2="683" y2="1788.5" gradientTransform="matrix(1 0 0 1 0 -1240)">
	<stop  offset="0" style="stop-color:#FFEFC5"/>
	<stop  offset="1" style="stop-color:#FFEFC5;stop-opacity:0"/>
</linearGradient>
<rect y="548.5" style="fill:url(#SVGID_00000120524224599402928330000016389790800569394334_);" width="1366" height="218.2"/>
</svg>
