<svg xmlns="http://www.w3.org/2000/svg" xmlns:xlink="http://www.w3.org/1999/xlink" viewBox="0 0 1906.61 993.77"><defs><style>.cls-1{fill:#593c89;}.cls-2{fill:url(#linear-gradient);}.cls-3{fill:url(#linear-gradient-2);}.cls-4{fill:url(#linear-gradient-3);}.cls-5{fill:url(#linear-gradient-4);}.cls-6{fill:url(#linear-gradient-5);}.cls-7{fill:url(#linear-gradient-6);}.cls-8{fill:url(#linear-gradient-7);}.cls-9{fill:url(#linear-gradient-8);}.cls-10{fill:url(#linear-gradient-9);}.cls-11{fill:url(#linear-gradient-10);}.cls-12{fill:url(#linear-gradient-11);}.cls-13{fill:url(#linear-gradient-12);}.cls-14{fill:url(#linear-gradient-13);}.cls-15{fill:url(#linear-gradient-14);}.cls-16{fill:url(#linear-gradient-15);}.cls-17{fill:url(#linear-gradient-16);}.cls-18{fill:url(#linear-gradient-17);}.cls-19{fill:url(#linear-gradient-18);}.cls-20{fill:url(#linear-gradient-19);}</style><linearGradient id="linear-gradient" x1="279.96" y1="860.08" x2="575.96" y2="172.08" gradientUnits="userSpaceOnUse"><stop offset="0" stop-color="#4f4967"/><stop offset="0.03" stop-color="#4d4867"/><stop offset="0.55" stop-color="#393561"/><stop offset="0.89" stop-color="#322e5f"/></linearGradient><linearGradient id="linear-gradient-2" x1="927.44" y1="1138.65" x2="1223.44" y2="450.65" xlink:href="#linear-gradient"/><linearGradient id="linear-gradient-3" x1="453.87" y1="934.91" x2="749.87" y2="246.91" xlink:href="#linear-gradient"/><linearGradient id="linear-gradient-4" x1="888.39" y1="1121.85" x2="1184.39" y2="433.85" xlink:href="#linear-gradient"/><linearGradient id="linear-gradient-5" x1="340.12" y1="885.97" x2="636.12" y2="197.97" gradientUnits="userSpaceOnUse"><stop offset="0" stop-color="#4f4967"/><stop offset="1" stop-color="#484365"/></linearGradient><linearGradient id="linear-gradient-6" x1="1167.16" y1="1241.79" x2="1463.16" y2="553.79" xlink:href="#linear-gradient"/><linearGradient id="linear-gradient-7" x1="390.48" y1="907.63" x2="686.48" y2="219.63" xlink:href="#linear-gradient"/><linearGradient id="linear-gradient-8" x1="737.5" y1="1056.93" x2="1033.5" y2="368.93" xlink:href="#linear-gradient"/><linearGradient id="linear-gradient-9" x1="641.71" y1="1015.72" x2="937.71" y2="327.72" xlink:href="#linear-gradient"/><linearGradient id="linear-gradient-10" x1="770.05" y1="1070.94" x2="1066.05" y2="382.94" xlink:href="#linear-gradient"/><linearGradient id="linear-gradient-11" x1="614.26" y1="1003.91" x2="910.26" y2="315.91" xlink:href="#linear-gradient"/><linearGradient id="linear-gradient-12" x1="823.64" y1="1093.99" x2="1119.64" y2="405.99" xlink:href="#linear-gradient"/><linearGradient id="linear-gradient-13" x1="530.02" y1="967.67" x2="826.02" y2="279.67" xlink:href="#linear-gradient"/><linearGradient id="linear-gradient-14" x1="402.77" y1="912.92" x2="698.77" y2="224.92" xlink:href="#linear-gradient"/><linearGradient id="linear-gradient-15" x1="563.3" y1="981.98" x2="859.3" y2="293.98" xlink:href="#linear-gradient"/><linearGradient id="linear-gradient-16" x1="718.91" y1="1048.93" x2="1014.91" y2="360.93" xlink:href="#linear-gradient"/><linearGradient id="linear-gradient-17" x1="920.93" y1="1135.85" x2="1216.93" y2="447.85" xlink:href="#linear-gradient"/><linearGradient id="linear-gradient-18" x1="235.96" y1="769.77" x2="1674.54" y2="299.97" gradientUnits="userSpaceOnUse"><stop offset="0" stop-color="#5b3b63"/><stop offset="0.24" stop-color="#a4658c"/><stop offset="0.59" stop-color="#ffe6f5"/><stop offset="1" stop-color="#eeba9e"/></linearGradient><linearGradient id="linear-gradient-19" x1="23.95" y1="834.42" x2="1883.84" y2="227.04" xlink:href="#linear-gradient-18"/></defs><title>bg_planet01</title><g id="Layer_2" data-name="Layer 2"><g id="Layer_1-2" data-name="Layer 1"><circle class="cls-1" cx="955.36" cy="496.89" r="496.89"/><path class="cls-2" d="M568.55,186.36q2.63-3.24,5.29-6.43"/><path class="cls-3" d="M1076,937.92c-20.25-31.3-19.11-66.91,3.4-105.84,19.32-33.43,50.61-62.38,73.45-80.78,65.95-53.13,100.44-101,102.51-142.42.72-14.42,1.54-30.69-.23-34.23-3.35.87-13,9.73-23.16,19.09-3.39,3.12-7.13,6.56-11.26,10.31-3.31,3-6.85,6.22-10.6,9.65-44.88,40.94-120,109.47-193.14,141.71-78.93,34.78-100.23,185.36-101.59,236.82q19.46,1.53,39.31,1.54a495.64,495.64,0,0,0,154.44-24.51C1096.7,962.42,1085.42,952.42,1076,937.92Z"/><path class="cls-4" d="M547.17,266.55c13.74,49.84,36.74,133.23,163.58,125.39,56.33-3.49,110.33-13.34,152.06-27.72,41.37-14.26,59.5-28.92,62.45-37.14.45-1.25.92-2.55-1.7-5-30.32-28.3-73.41-39.8-115.28-30.75C796,294,787,297.9,778.38,301.68c-28.59,12.45-49.52,18.58-116.55-11q-13.5-6-25.94-11.53C609.67,267.47,587,257.37,569.64,251c-18.54-6.78-25.82-7.25-28.44-7a27,27,0,0,0,1.53,7.15C544.18,255.7,545.63,261,547.17,266.55Z"/><path class="cls-5" d="M1284.29,140.43c-54.56-17.13-71.17-10.64-75.78-7.06-.54.42-1.36,1.06-1.29,3.59.41,14.8,27.26,48.39,71.49,79,17.41,12.05,37.53,25.63,54.68,34.93,21.36,11.59,28.78,11.45,30.53,11.15.43-1.53,1.27-7.72-5-24.87-9.72-26.41-16.77-44.69-23.81-57.89q-12.52-14.94-26.17-28.86C1302.21,146.6,1294.26,143.56,1284.29,140.43Z"/><path class="cls-6" d="M459.2,475.13q-.51,11.24-.52,22.59A494.88,494.88,0,0,0,490,671.61q-.57-11.19-1.28-23.63C483.58,559.19,475.17,507.5,459.2,475.13Z"/><path class="cls-7" d="M1359.35,784.76a496.32,496.32,0,0,0,38.19-63.24C1376.78,741.76,1363.34,764,1359.35,784.76Z"/><path class="cls-8" d="M756.31,191.21c25.23,9.13,44.15,8.2,53.29-2.63,12.07-14.31,8.51-45.42-8.66-75.64-12-21-28.22-46.45-44.05-70.24a496.77,496.77,0,0,0-148,99.4c27.74,13,59.84,22.33,91,31.42C719.9,179.36,738.8,184.87,756.31,191.21Z"/><path class="cls-9" d="M1023.4,507.92c43.3,0,45.5-64.56,45.5-77.5,0-29.27-24.67-48.17-62.84-48.17-27.69,0-49.17,6.38-58.93,17.51-4.85,5.53-6.68,12.16-5.61,20.27C948,469.31,984,507.92,1023.4,507.92Z"/><path class="cls-10" d="M835.83,583.66h0c-13.73-12-29.67-18.52-44.62-18.52a48.86,48.86,0,0,0-6.42.41c-9.32,1.23-16.85,5.2-20.68,10.89-10.58,15.75-8.36,58.89,16.4,86.23C797,680.92,817.06,689,835.42,685c11.41-2.54,20.81-9.9,23.4-18.32C869.09,633.24,861.57,606.1,835.83,583.66Z"/><path class="cls-11" d="M1199.66,865.86c-8.14-14-7.81-30.13,1-48.06,14.74-30.09,38.11-56,60.7-81.13,27.23-30.24,53-58.8,58.4-89.43,10.58-59.52,3.79-155.29-50.15-229.31-38.83-53.28-60.76-63.07-66.92-60.79-4,1.48-10.12,13.35-7.46,48.48,3.78,49.92.72,94.4-8.86,128.62-12.15,43.43-34.41,71-66.16,82.09-6.38,2.22-13,4.65-19.36,7-29.33,10.8-60.7,22.35-93.59,22.35-30.46,0-62.22-9.9-94.88-39.48-30.41-27.55-45.12-48.55-54.85-62.45-5.65-8.07-9.74-13.9-13.48-15.94-2.31-1.27-6.27-2.16-18.08.79-50.59,12.65-103.45,5.9-161.57-20.63-28.35-13-43.06-15.45-48.77-15.26,1.29,3.48,5.36,11.22,18.21,25.29,34.11,37.3,60.88,81.57,84.5,120.63,6.68,11,13,21.47,19.31,31.53,25.86,41.13,59.42,83,112.19,81.76,15.72-.38,30.2-3.21,43-5.71,20.78-4.07,37.19-7.28,47.9,3.13,9.82,9.55,8.58,25.75,6.41,38.8-3.07,18.4-9.1,39.11-15.48,61-11,37.66-23.13,79.47-22.63,118.2,2.81-29.88,9.47-68.9,21.62-105.72,19.42-58.88,48.19-98.15,83.19-113.57,72-31.71,146.45-99.69,191-140.3,3.77-3.43,7.31-6.67,10.63-9.67q6.16-5.6,11.22-10.27c18.67-17.17,25.66-23.6,32-20.61s6.24,12.49,4.76,42c-2.18,43.75-37.67,93.63-105.48,148.25-22.32,18-52.84,46.19-71.55,78.55-20.88,36.12-22.09,68.92-3.6,97.5,10.24,15.82,22.88,25.85,37,32.07a495,495,0,0,0,127.82-67.54C1225.82,891,1208.34,880.75,1199.66,865.86ZM878.89,672.8C874,688.69,859.1,701.2,840,705.45A65.18,65.18,0,0,1,825.83,707c-21.49,0-43.06-10.56-60.88-30.23-14.16-15.64-23.66-36.7-26.74-59.3-2.85-20.9.32-40.62,8.47-52.75,7.19-10.69,20.08-18,35.36-20,22.69-3,47.32,5.43,67.59,23.1h0C881.38,595.51,891.5,631.81,878.89,672.8Z"/><path class="cls-12" d="M1022.61,79.23c44.66,6.09,76.66-13.41,110.53-34.07,3.45-2.09,6.9-4.2,10.39-6.29a494.61,494.61,0,0,0-188.8-37.2q-11.87,0-23.58.56a154.93,154.93,0,0,0,8.06,17.53C957.82,54.21,985.88,74.21,1022.61,79.23Z"/><path class="cls-13" d="M955.73,119.92c46.75,41.78,128.92,100.07,254.88,140.5,55.7,17.88,92.37,39.31,122.62,71.66,29.42,31.46,52,72.38,81,132.44,15.33,31.76,26.6,60.2,33.83,85.79a502,502,0,0,0-2-121.25c-4.37-7.39-9.48-16-15.43-25.93-32.17-53.83-82.43-102.49-122.24-118.33-44.15-17.57-101.5-65.86-153.42-129.18-18.63-22.72-14.27-39.43-7.34-49.46,10.25-14.82,34.19-26.18,66.17-31.54a494.81,494.81,0,0,0-61.13-31.88c-5.18,3-10.28,6.16-15.36,9.26-35.13,21.41-68.31,41.63-115.79,35.15C982.59,81.84,951.64,59.77,932,23.32a165.27,165.27,0,0,1-9.3-20.63q-10.47.66-20.82,1.77a171.32,171.32,0,0,0,5,33.84C915.12,70.84,931.54,98.3,955.73,119.92Z"/><path class="cls-14" d="M802.56,872.44C780.21,858,764.28,853,751.49,848.92c-13-4.08-23.17-7.31-32.72-18.3s-18-29.39-28.51-61.64q-3.64-11.24-7.25-22.49c-28.52-88.9-58-180.83-125.11-247.91-38.66-38.66-69.54-72.74-90-96.24a495.74,495.74,0,0,0-7.78,58c20.67,32.74,30.82,86.85,36.65,187.18.87,14.8,1.54,28.4,2.13,40.4.1,2.17.21,4.29.31,6.38,60.18,139.27,182.35,245.5,331.73,283.89A125.32,125.32,0,0,0,838.27,947C841.35,914.83,829.33,889.76,802.56,872.44Z"/><path class="cls-15" d="M850.48,204.86c8.16-9.57,8.51-24.35,1.12-46.51C840.17,124,810.88,73.07,785,31.47c-2.78,1-5.54,2.05-8.3,3.11,15.34,23.14,30.88,47.54,42.49,68,22.12,38.92,24.65,78,6.46,99.56-6,7.08-17.86,16.28-39.22,16.28-10.15,0-22.45-2.08-37.27-7.45-16.88-6.11-35.47-11.53-55.15-17.27-33.74-9.85-69.66-20.33-100.62-35.8q-10.1,10.73-19.55,22.05a417,417,0,0,0,96.87,27.87C779.73,225.67,833.49,224.79,850.48,204.86Z"/><path class="cls-16" d="M637.68,427.86c66,16.06,106.4,17.09,145.46,18.09,19.22.49,37.37,1,58,3.15,31.27,3.33,52,31.29,73.86,60.9,24.13,32.62,49.08,66.35,90.63,72.46,30.3,4.45,56.9-2.12,79.07-19.53,29.93-23.5,49.87-66.59,54.71-118.22,7.06-75.33-23.25-120.4-54-137.46-4-2.22-8.29-4.55-12.83-7-35.85-19.44-90-48.82-152-109.64-36.6-35.89-57.39-88.55-68.38-126.4a487,487,0,0,1-11.54-49.35A495.53,495.53,0,0,0,792.8,28.71c25.8,41.54,54.74,92.15,66.39,127.11,8.37,25.08,7.53,42.32-2.62,54.23S826.88,228,795.45,228.54c-1.66,0-3.36,0-5.09,0-28.84,0-67.51-4.12-120.94-12.88a424.33,424.33,0,0,1-100.87-29.34Q554.29,204,541.64,223c18.29-.27,48.82,12.91,102.8,37q12.39,5.53,25.86,11.5c62,27.36,77,20.83,99.69,10.95,9.16-4,19.54-8.52,33.86-11.61,48.58-10.51,98.69,2.92,134,35.92,8.08,7.55,10.69,17.55,7.14,27.44-8.1,22.56-45.46,39.59-75.38,49.9-43.47,15-99.44,25.21-157.6,28.81q-8.87.56-17.33.55c-53.5,0-95.16-16.42-124-48.93-26.58-30-36.94-67.52-43.79-92.38-1.55-5.59-2.88-10.42-4.19-14.49-.22-.67-.49-1.53-.78-2.52a493.35,493.35,0,0,0-39.19,89.47C524,400.21,562.51,409.58,637.68,427.86Zm293.66-41.95c13.94-15.9,40.48-24.66,74.72-24.66,24.45,0,45.37,6.63,60.5,19.19a63.85,63.85,0,0,1,23.34,50c0,13.26-1.54,38.83-11.86,61-11.43,24.54-30.32,37.51-54.64,37.51-24.86,0-49.09-11.19-68.23-31.51-18.46-19.6-30.7-46.1-34.47-74.63C918.84,408.73,922.52,396,931.34,385.91Z"/><path class="cls-17" d="M911.44,843.31c6.21-21.32,12.07-41.45,14.93-58.62,2.84-17-.2-20.17-.33-20.29-2.82-2.75-18.08.24-29.23,2.42-12.92,2.53-29,5.68-46.5,6.09-28.43.69-53.81-8.38-77.54-27.68-17.83-14.51-34.65-34.81-52.93-63.89-6.42-10.21-12.77-20.72-19.5-31.85-23.12-38.22-49.32-81.55-82-117.32-15.34-16.78-31.58-37.89-21-52.45,8.12-11.17,25.39-7.77,31.06-6.65,11.77,2.31,26.8,7.63,44.69,15.79,53.63,24.48,102,30.82,147.76,19.37,30.49-7.62,39,2.25,53.85,23.48,9.19,13.13,23.09,33,51.75,58.92,58.5,53,111.26,33.56,167.12,13,6.47-2.38,13.16-4.84,19.71-7.12,66.24-23,64.71-140,61-189.29-3.07-40.59,3.84-63.41,21.14-69.78,11.89-4.38,26.46.43,43.32,14.3,14.23,11.69,30.32,29.81,47.83,53.83,27,37.06,45,80.82,53.37,130.09,6.62,38.83,6.79,79.77.48,115.27-6.49,36.54-34.16,67.27-63.46,99.8-21.63,24-44,48.87-57.45,76.31-5.58,11.39-6.13,20.64-1.69,28.26,6.57,11.27,23.52,20.2,50.57,26.75a500,500,0,0,0,70.14-70,78.55,78.55,0,0,1-1.11-21.74c2.81-33.21,24.37-67.79,60.7-97.36a111.64,111.64,0,0,0,22.28-23.85,494.12,494.12,0,0,0,16.29-53.39c0-1.51.07-3,.06-4.57-.15-35-13.71-80-41.45-137.48-54.69-113.28-85.33-159.29-191.09-193.24-102.48-32.89-193.23-83-262.45-144.83C891.22,90.44,882.29,32.89,881,7.12q-16.41,2.46-32.47,6a479.78,479.78,0,0,0,11.59,49.51C870.81,99.31,891,150.35,926.2,184.89c61.2,60,114.79,89.09,150.24,108.31,4.56,2.48,8.87,4.81,12.9,7.05,32.92,18.29,65.46,66,58,145.21-5,53.8-26.08,98.91-57.73,123.76-19.14,15-41.27,22.59-66,22.6a130.91,130.91,0,0,1-19.18-1.45c-44.84-6.59-72-43.26-95.9-75.61-20.83-28.15-40.5-54.75-68.27-57.7C820,454.9,802,454.44,782.94,454c-39.49-1-80.32-2.06-147.15-18.31-48.35-11.76-83.27-20.26-113-40.22-15.23-10.21-29.05-23.38-42.94-41.37q-5.7,18.9-9.94,38.42c20.27,23.41,52.55,59.31,93.69,100.45C632,561.37,661.81,654.23,690.63,744q3.61,11.24,7.24,22.47c20.63,63.62,31,66.89,56,74.78,13.25,4.18,29.74,9.38,53,24.43,36.82,23.83,41.7,57.88,39.31,82.25a132.54,132.54,0,0,1-7.48,32.16,495.51,495.51,0,0,0,50.83,9.39C882.92,941.3,898,889.35,911.44,843.31Z"/><path class="cls-18" d="M1154.21,110.71c-7.81,11.29-5.47,24.69,7,39.84,50.34,61.38,107.88,110,150.19,126.82,41.29,16.43,93.16,66.46,126.15,121.66,1.78,3,3.47,5.82,5.1,8.55a492.85,492.85,0,0,0-58.39-158.24c2.08,11.41,1.34,22.69-7.22,29.32a22.07,22.07,0,0,1-14,4.4c-19.85,0-51-18.51-96.23-49.84-36.63-25.35-79.69-65.61-80.53-95.67-.24-8.62,3-15.79,9.39-20.76,13.66-10.62,38-11.42,74-2.35a498.57,498.57,0,0,0-45.44-33.25C1193.17,85,1165.06,95,1154.21,110.71Z"/><path class="cls-19" d="M1689.49,346.08c-12.55-50.52-123.59-71-288.66-62.35a494.48,494.48,0,0,1,19.05,45.84c75.86,4.67,124,21.52,131.32,50.85C1569.72,455,1317,581.9,986.83,663.91S373.92,752,355.41,677.41c-7.72-31.07,31.65-71.22,104.08-113.43q-3.19-23.67-4.14-48C298,587.4,204.23,659.87,217.12,711.75c22.8,91.81,370.88,84.37,777.47-16.61S1712.29,437.88,1689.49,346.08Z"/><path class="cls-20" d="M1905.08,292.53c-20.07-80.83-235.2-102.15-536.44-66.29a497.3,497.3,0,0,1,27,46.89c188.45-12.88,316.8,8,330.66,63.8,23.94,96.4-302.74,260.49-729.65,366.52s-792.4,113.84-816.34,17.44c-14.19-57.12,94.77-138,274.74-216.53,0-2.49-.07-5-.07-7.47q0-23.24,2.1-45.94C166.91,561.48-18.85,683.29,1.52,765.3,31,884,481,874.37,1006.68,743.82S1934.56,411.22,1905.08,292.53Z"/></g></g></svg>